<svg width="26" height="27" viewBox="0 0 26 27" fill="none" xmlns="http://www.w3.org/2000/svg">
<path fill-rule="evenodd" clip-rule="evenodd" d="M12.9997 1.7334C9.01079 1.7334 5.76758 5.00554 5.76758 9.04161C5.76758 10.4088 6.36972 12.1048 7.24615 13.7966C9.17579 17.522 12.3901 21.2741 12.3901 21.2741C12.5422 21.452 12.7651 21.5548 12.9997 21.5548C13.2344 21.5548 13.4572 21.452 13.6094 21.2741C13.6094 21.2741 16.8237 17.522 18.7533 13.7966C19.6297 12.1048 20.2319 10.4088 20.2319 9.04161C20.2319 5.00554 16.9886 1.7334 12.9997 1.7334ZM12.9997 6.01911C11.3733 6.01911 10.0533 7.33911 10.0533 8.96554C10.0533 10.592 11.3733 11.912 12.9997 11.912C14.6261 11.912 15.9461 10.592 15.9461 8.96554C15.9461 7.33911 14.6261 6.01911 12.9997 6.01911Z" fill="#13C2FD"/>
<path fill-rule="evenodd" clip-rule="evenodd" d="M18.1257 19.0122C18.9968 19.2737 19.7146 19.5972 20.2107 19.9765C20.5321 20.2208 20.7679 20.4597 20.7679 20.7511C20.7679 20.9226 20.6704 21.0779 20.5332 21.2333C20.3061 21.4894 19.9686 21.7197 19.5507 21.934C18.0743 22.6894 15.6871 23.1619 13 23.1619C10.3129 23.1619 7.92571 22.6894 6.44929 21.934C6.03143 21.7197 5.69393 21.4894 5.46679 21.2333C5.32964 21.0779 5.23214 20.9226 5.23214 20.7511C5.23214 20.4597 5.46786 20.2208 5.78929 19.9765C6.28536 19.5972 7.00321 19.2737 7.87429 19.0122C8.29857 18.8847 8.53964 18.4358 8.41214 18.0115C8.28464 17.5862 7.83571 17.3451 7.41143 17.4726C6.085 17.8722 5.05429 18.4197 4.435 19.0251C3.89071 19.5554 3.625 20.149 3.625 20.7511C3.625 21.5033 4.05036 22.2533 4.915 22.879C6.43214 23.9762 9.47929 24.769 13 24.769C16.5207 24.769 19.5679 23.9762 21.085 22.879C21.9496 22.2533 22.375 21.5033 22.375 20.7511C22.375 20.149 22.1093 19.5554 21.565 19.0251C20.9457 18.4197 19.915 17.8722 18.5886 17.4726C18.1643 17.3451 17.7154 17.5862 17.5879 18.0115C17.4604 18.4358 17.7014 18.8847 18.1257 19.0122Z" fill="#13C2FD"/>
</svg>
